<svg xmlns="http://www.w3.org/2000/svg" viewBox="0 0 40 40">
  <!-- Background Circle -->
  <circle cx="20" cy="20" r="18" fill="#4154f1"/>
  
  <!-- Blog Icon - Letter B in a stylized form -->
  <path d="M15 12v16h10c2.2 0 4-1.8 4-4 0-1.5-0.8-2.8-2-3.5 1.2-0.7 2-2 2-3.5 0-2.2-1.8-4-4-4H15z" fill="#FFFFFF"/>
  
  <!-- Cutouts for the B -->
  <path d="M19 16h3c1.1 0 2 0.9 2 2s-0.9 2-2 2h-3V16z" fill="#4154f1"/>
  <path d="M19 22h4c1.1 0 2 0.9 2 2s-0.9 2-2 2h-4V22z" fill="#4154f1"/>
  
  <!-- Multiple language lines -->
  <line x1="8" y1="20" x2="12" y2="20" stroke="#FFFFFF" stroke-width="2" stroke-linecap="round"/>
  <line x1="8" y1="16" x2="12" y2="16" stroke="#FFFFFF" stroke-width="2" stroke-linecap="round"/>
  <line x1="8" y1="24" x2="12" y2="24" stroke="#FFFFFF" stroke-width="2" stroke-linecap="round"/>
</svg>